<?xml version="1.0" encoding="UTF-8"?>
<svg xmlns="http://www.w3.org/2000/svg" id="Layer_1" data-name="Layer 1" viewBox="0 0 178.64 103.68">
  <path d="M146.56,46.21l-.24.82c-.13.44-.25.88-.38,1.31s-.3,1-.44,1.48-.29.92-.43,1.38l-.24.76q16.47-3,32.44-5.26A255.6,255.6,0,0,0,146.56,46.21ZM42.91,70.56l-.44-.87A264.75,264.75,0,0,0,3.25,90.08q18.59-6.73,38.4-12.87c.76-1.56,1.51-3.13,2.28-4.69l-.76-1.44C43.08,70.91,43,70.73,42.91,70.56Zm45.34,10c-.63-1.3-1-1.81-1.62-3.11l-1,2.73L81.21,83.7l-1.73.8.08.64A49.42,49.42,0,0,0,89.79,84c0-1.3,0-2.67-.08-4.07ZM98.6,75.44l-.86.9-5.51,2.42c.06,1.58.1,3.1.1,4.56,3.34-.84,6.28-1.72,8.9-2.64a36.07,36.07,0,0,1,1.16-5.91,16.6,16.6,0,0,1-2.54.7A4.64,4.64,0,0,1,98.6,75.44ZM81.47,51.5l2.72-2.87,2.14-.48c-.64-4.18-1.29-8-1.84-11a114.56,114.56,0,0,0-27.16,7.44l.28.59a66.18,66.18,0,0,0,5.37,9q1.16-.39,2.34-.72,4-1.06,7.93-2.07C75.69,50.75,79.56,49.48,81.47,51.5Zm19.66,32c-2.63.89-5.55,1.73-8.83,2.55,0,1.11,0,7.52-1.81,11.17a46.85,46.85,0,0,0,14.24-6.78C102.43,89.33,101.23,86.45,101.13,83.45ZM98,45.67l-1,2.56-.1.26,3-3.2c3.07-.6,6.13-1.16,9.2-1.71l-.51,1.54a10.53,10.53,0,0,1,5.22-2.23l.26,0A48.61,48.61,0,0,0,115.13,37l-1.56-.34A115.19,115.19,0,0,0,101.05,36a117.45,117.45,0,0,0-14,.83c.55,3,1.18,6.68,1.81,10.77C91.9,46.93,94.92,46.29,98,45.67ZM72.15,88q1.62,2,3.33,4a6.23,6.23,0,0,0,1.61-4.26c-1.22,0-2.54-.1-3.92-.22ZM55,45.62c-1.21.52-2.41,1.07-3.6,1.63,1.08,3.81,2.35,7.53,3.78,11.16l.06,0L55.7,58l.11-.08c.4-.31.81-.59,1.23-.87l.08,0,.56-.35.09-.06c.43-.26.87-.5,1.31-.73l.09,0,.57-.29.12-.06.66-.31a64.78,64.78,0,0,1-5.23-8.8Zm22.2,48.21c.57.63,1.15,1.24,1.74,1.86l.19.2c.93,1,1.88,1.92,2.84,2.86,1.48-.14,3-.34,4.38-.6a12.22,12.22,0,0,0,1-1,.45.45,0,0,1,.11-.14c1.46-1.49,2.18-5.29,2.36-10.44A53,53,0,0,1,79.69,87.7,8.1,8.1,0,0,1,77.15,93.83ZM117.9,37.66a40.11,40.11,0,0,1-.67,4.69c1.91-.3,3.82-.58,5.73-.86l-2.37,9.45-3.81,4,3.24-1C119,58,118,62,116.9,66l-4.14,4.35c-1.74.72-4.62,2.1-7.39,3.26a43.61,43.61,0,0,0-1.54,6.08c9.48-3.81,14.34-8.66,19.61-17a47.53,47.53,0,0,0-.57-23.7Q120.4,38.3,117.9,37.66ZM103.57,82.57c-.06,5.85,3.58,5.6,4.17,5.51A47.22,47.22,0,0,0,120.67,71C116.26,76.18,111.26,79.67,103.57,82.57Z" transform="translate(-0.68 -24.16)" fill="#ef3b24"></path>
  <path d="M93.23,108.43a104.31,104.31,0,0,1-10-8.4h0l-1.34-1.28c-1-.94-1.91-1.89-2.84-2.86l-.19-.2c-.59-.62-1.17-1.23-1.74-1.86S76,92.58,75.48,92q-1.71-2-3.33-4l-.68.32-3,1.41a114.76,114.76,0,0,0,22.63,20.15c.71-.46,1.41-.93,2.11-1.4h0ZM91.3,34.29A114.63,114.63,0,0,0,44.82,45.5a119.52,119.52,0,0,0,6.24,17l1.71-1.79c.17-.2.35-.38.53-.57a.47.47,0,0,0,.1-.1l.47-.46.09-.08c.37-.36.75-.69,1.14-1l0,0c-1.43-3.63-2.7-7.35-3.78-11.16,1.19-.56,2.39-1.11,3.6-1.63l2.38-1a114.56,114.56,0,0,1,27.16-7.44c.86-.13,1.71-.24,2.57-.35a117.45,117.45,0,0,1,14-.83,115.19,115.19,0,0,1,12.52.67A113.08,113.08,0,0,0,91.3,34.29Z" transform="translate(-0.68 -24.16)" fill="#fdbb30"></path>
  <path d="M63.58,61.89Q58,73.7,52.83,85.67c2.38-1.09,4.75-2.16,7.13-3.22q4.79-11.33,9.9-22.51C67.75,60.58,65.66,61.24,63.58,61.89ZM90.27,25.64c-21.72,0-38.54,5.37-57.71,15.24l1.29,5.19a115.8,115.8,0,0,0,9.06,24.49c.09.17.17.35.26.52.25.48.5,1,.76,1.44-.77,1.56-1.52,3.13-2.28,4.69q-4.15,8.66-8.06,17.43c-1.29,2.94-4.09,8.1.15,9.94,3.89,1,7.63-1.6,11-3.31l1.81-.91,2.36-1.2.42-.21c1.47-.74,2.93-1.47,4.4-2.19,1-.49,2.91-1.43,5.34-2.59.51.58,1,1.15,1.57,1.72l.21.23c.5.54,1,1.07,1.51,1.6l.09.08a135.64,135.64,0,0,0,27.82,21.76c22.75-13.64,37.92-29.68,48-50.84.17-.34.33-.69.49-1,.29-.63.57-1.26.86-1.9l.09-.2c.17-.4.35-.8.52-1.21.06-.12.11-.25.16-.38,1.74-4.07,3.3-8.34,4.71-12.8.14-.46.28-.92.43-1.38s.29-1,.44-1.48.25-.87.38-1.31q.85-3,1.64-6.15C128.81,31,112,25.64,90.27,25.64ZM57.24,91c-3,1.5-6,3-9,4.53-2.75,1.4-6.65,4-9.77,3.21-2.83-1.22-.18-6,.69-7.89q5-11.19,10.36-22.17a31.67,31.67,0,0,1,4.4-7c3.22-3.56,7.24-5.49,11.75-6.72q3.95-1.06,7.89-2.07c1.94-.48,6.39-2.09,7.24.54.43,2-.9,4.23-1.66,6q-3.06,7.19-6,14.42a49.12,49.12,0,0,1-3.07,6.58C67,85.39,62.36,88.48,57.24,91ZM82.65,56.15C83.51,54.08,84.4,52,85.28,50c3.4-.77,6.82-1.52,10.24-2.22q-2.31,6-4.57,12,4.83-6.57,9.79-13,3-.6,6.1-1.15c-.52,1.61-1,3.21-1.58,4.82l-2.11.49Q99.4,56.41,95.72,62q2.07,4.6,4.1,9.22c-2.22,1-4.43,1.94-6.65,2.93q-2.15-4.4-4.33-8.77-2.39,6.41-4.71,12.85Q79,80.6,73.86,83c1-2.66,2.08-5.31,3.14-8q3.84-9.78,7.85-19.52ZM113,48.8q-2,7-4.09,14c1.08-.4,2.15-.8,3.24-1.19.36-1.3.72-2.61,1.09-3.91q2.34-.77,4.66-1.48-1.11,4.34-2.24,8.67-4.45,1.83-8.87,3.71a12.9,12.9,0,0,1-2.86,1c-2.91.24-2-3.07-1.4-4.88l4.41-13.8a10.71,10.71,0,0,1,2.22-4.2A8.39,8.39,0,0,1,114,44.43c2.31-.38,4.63-.74,6.94-1.08-.53,2.1-1,4.21-1.59,6.31l-4.19,1c.23-.81.45-1.63.68-2.45Zm-10.56,26a36.07,36.07,0,0,0-1.16,5.91c-2.62.92-5.56,1.8-8.9,2.64,0-1.46,0-3-.1-4.56l5.51-2.42.86-.9a4.64,4.64,0,0,0,1.25,0A16.6,16.6,0,0,0,102.39,74.77ZM89.79,84a49.42,49.42,0,0,1-10.23,1.19l-.08-.64,1.73-.8,4.43-3.56,1-2.73c.64,1.3,1,1.81,1.62,3.11l1.46-.64C89.76,81.28,89.79,82.65,89.79,84Zm.48,31.31A127,127,0,0,1,62.48,92.54l6-2.86,3-1.41,1.7-.8c1.38.12,2.7.19,3.92.22A6.23,6.23,0,0,1,75.48,92c.55.63,1.11,1.26,1.67,1.88a8.1,8.1,0,0,0,2.54-6.13,53,53,0,0,0,10.06-1.09c-.18,5.15-.9,9-2.36,10.44a.45.45,0,0,0-.11.14,12.22,12.22,0,0,1-1,1c1.42-.26,2.81-.59,4.19-1C92.25,93.52,92.27,87.11,92.3,86c3.28-.82,6.2-1.66,8.83-2.55.1,3,1.3,5.88,3.6,6.94,1-.73,2-1.51,3-2.31-.59.09-4.23.34-4.17-5.51,7.69-2.9,12.69-6.39,17.1-11.61a46.84,46.84,0,0,0,2.77-8.23c-5.27,8.31-10.13,13.16-19.61,17a43.61,43.61,0,0,1,1.54-6.08c2.77-1.16,5.65-2.54,7.39-3.26L116.9,66C118,62,119,58,120,53.94l-3.24,1,3.81-4L123,41.49c-1.91.28-3.82.56-5.73.86a40.11,40.11,0,0,0,.67-4.69h0c-.61-.16-1.23-.3-1.84-.45l-.37-.08-.56-.13h0a48.61,48.61,0,0,1-1.06,5.85l-.26,0a10.53,10.53,0,0,0-5.22,2.23l.51-1.54c-3.07.55-6.13,1.11-9.2,1.71l-3,3.2.1-.26,1-2.56c-3,.62-6,1.26-9.08,1.92-.63-4.09-1.26-7.78-1.81-10.77-.86.11-1.71.22-2.57.35.55,3,1.2,6.8,1.84,11l-2.14.48L81.47,51.5c-1.91-2-5.78-.75-8.22-.13q-4,1-7.93,2.07-1.18.33-2.34.72a66.18,66.18,0,0,1-5.37-9l-.28-.59-2.38,1,.34.7a64.78,64.78,0,0,0,5.23,8.8l-.66.31-.12.06-.57.29-.09,0c-.44.23-.88.47-1.31.73l-.09.06-.56.35L57,57c-.42.28-.83.56-1.23.87L55.7,58l-.51.41-.09.07c-.39.32-.77.65-1.14,1l-.09.08L53.4,60a.47.47,0,0,1-.1.1c-.18.19-.36.37-.53.57l-1.71,1.79L48.63,65a25.78,25.78,0,0,0-2.52,3.48A117.18,117.18,0,0,1,40,53.74q-1.78-5.27-3.18-10.92C54.55,34,70.25,29.3,90.27,29.31S126,34,143.69,42.82C135,75.49,119.16,97.44,90.27,115.26Z" transform="translate(-0.68 -24.16)" fill="#002d62"></path>
  <path d="M177.15,54.36a261.06,261.06,0,0,0-33.3,4.9c.75-2,1.45-4,2.12-6q16-2.89,31.51-5.09c2.13-.22,2.13-2.78-.1-2.93a259.12,259.12,0,0,0-28.86-.58c.4-1.51.79-3,1.16-4.55C129.75,29.83,112.9,24.16,90.27,24.16S50.78,29.83,30.85,40.1l1.57,6.33a117.37,117.37,0,0,0,8,22.51,264.88,264.88,0,0,0-38,19.9c-3.28,1.94-1.55,3.84,1.3,2.64q17-6.2,35.1-11.85Q35.46,86.8,32.24,94c-1.66,3.76-4.55,9.53,1,11.95a9,9,0,0,0,1.65.28,255.1,255.1,0,0,0-23.7,18.52c-2.94,2.6-.74,3.94,1.7,2.4C29,118.27,46,109.59,63.83,101.28a141.71,141.71,0,0,0,26.44,20c21.65-13,37.89-28.3,49-51.19q19.52-7,38.47-12.84C180,56.76,179.93,54.11,177.15,54.36Zm-39,14.55.09-.19c-10.05,21.16-25.22,37.2-48,50.84A135.64,135.64,0,0,1,62.45,97.8c.55.58,1.11,1.14,1.68,1.71C46,108,28.62,116.81,12.19,125.9a261.56,261.56,0,0,1,34.36-25.54l-1.81.91c-3.37,1.71-7.11,4.32-11,3.31-4.24-1.84-1.44-7-.15-9.94q3.9-8.77,8.06-17.43Q21.87,83.32,3.25,90.08A264.75,264.75,0,0,1,42.47,69.69l.44.87a115.8,115.8,0,0,1-9.06-24.49l-1.29-5.19c19.17-9.87,36-15.24,57.71-15.24S128.81,31,148,40.88Q147.18,44,146.32,47l.24-.82a255.6,255.6,0,0,1,30.71.49Q161.32,49,144.83,52l.24-.76c-1.41,4.46-3,8.73-4.71,12.8.38-.89.76-1.8,1.13-2.71a261.47,261.47,0,0,1,35.78-5.46Q158,61.72,138.15,68.91ZM55.1,58.44l.09-.07-.06,0ZM90.27,29.31c-20,0-35.72,4.68-53.44,13.51Q38.22,48.48,40,53.74a117.18,117.18,0,0,0,6.1,14.75A25.78,25.78,0,0,1,48.63,65l2.43-2.56a119.52,119.52,0,0,1-6.24-17A114.63,114.63,0,0,1,91.3,34.29a113.08,113.08,0,0,1,22.27,2.37l1.56.34h0l.56.13.37.08c.61.15,1.23.29,1.84.45h0q2.49.63,5,1.37a47,47,0,0,1-15.13,49.05c-1,.8-2,1.58-3,2.31a46.85,46.85,0,0,1-14.24,6.78c-1.38.39-2.77.72-4.19,1s-2.9.46-4.38.6L83.26,100l2.95-.48a48,48,0,0,0,39.36-55.09c-.06-.34-.13-.69-.19-1l0-.15,0-.17,0-.16,0-.17,0-.17,0-.17,0-.18,0-.18,0-.16,0-.14-.05-.2,0-.18,0-.14,0-.13,0-.14c-.14-.54-.26-1-.39-1.46l2,.63c1.4.46,2.71.93,4,1.42,3.28,1.22,6.19,2.47,8.6,3.62a114.29,114.29,0,0,1-44.06,62l-1.74,1.22h0c-.7.47-1.4.94-2.11,1.4A114.76,114.76,0,0,1,68.5,89.68l-6,2.86a127,127,0,0,0,27.79,22.72C119.16,97.44,135,75.49,143.69,42.82,126,34,110.28,29.31,90.27,29.31ZM72.15,88l1-.48-1.7.8ZM85.28,50c-.88,2.06-1.77,4.12-2.63,6.19l2.2-.61q-4,9.72-7.85,19.52c-1.06,2.66-2.1,5.31-3.14,8Q79,80.6,84.13,78.23q2.33-6.44,4.71-12.85,2.19,4.38,4.33,8.77c2.22-1,4.43-2,6.65-2.93q-2-4.6-4.1-9.22,3.69-5.59,7.43-11.14l2.11-.49c.53-1.61,1.06-3.21,1.58-4.82q-3.06.56-6.1,1.15-5,6.46-9.79,13,2.26-6,4.57-12C92.1,48.44,88.68,49.19,85.28,50Zm34.05-.3c.54-2.1,1.06-4.21,1.59-6.31-2.31.34-4.63.7-6.94,1.08a8.39,8.39,0,0,0-4.87,2.27,10.71,10.71,0,0,0-2.22,4.2l-4.41,13.8c-.57,1.81-1.51,5.12,1.4,4.88a12.9,12.9,0,0,0,2.86-1q4.42-1.87,8.87-3.71,1.13-4.34,2.24-8.67-2.32.72-4.66,1.48c-.37,1.3-.73,2.61-1.09,3.91-1.09.39-2.16.79-3.24,1.19q2-7,4.09-14l2.87-.61c-.23.82-.45,1.64-.68,2.45ZM70.07,80.44a49.12,49.12,0,0,0,3.07-6.58q2.94-7.23,6-14.42c.76-1.8,2.09-4.07,1.66-6-.85-2.63-5.3-1-7.24-.54q-3.94,1-7.89,2.07c-4.51,1.23-8.53,3.16-11.75,6.72a31.67,31.67,0,0,0-4.4,7q-5.4,11-10.36,22.17c-.87,1.94-3.52,6.67-.69,7.89,3.12.81,7-1.81,9.77-3.21,3-1.53,6-3,9-4.53C62.36,88.48,67,85.39,70.07,80.44ZM52.83,85.67Q58,73.7,63.58,61.89c2.08-.65,4.17-1.31,6.28-2Q64.73,71.13,60,82.45C57.58,83.51,55.21,84.58,52.83,85.67Z" transform="translate(-0.68 -24.16)" fill="#fff"></path>
  <path d="M141.49,61.29c-.37.91-.75,1.82-1.13,2.71-.05.13-.1.26-.16.38-.17.41-.35.81-.52,1.21l-.09.2c-.29.64-.57,1.27-.86,1.9-.16.34-.32.69-.49,1l-.09.19Q158,61.74,177.27,55.83A261.47,261.47,0,0,0,141.49,61.29ZM62.36,97.72c-.51-.53-1-1.06-1.51-1.6l-.21-.23c-.53-.57-1.06-1.14-1.57-1.72-2.43,1.16-4.35,2.1-5.34,2.59-1.47.72-2.93,1.45-4.4,2.19l-.42.21-2.36,1.2A261.56,261.56,0,0,0,12.19,125.9C28.62,116.81,46,108,64.13,99.51c-.57-.57-1.13-1.13-1.68-1.71Zm68.08-56.14c-1.31-.49-2.62-1-4-1.42l-2-.63c.13.45.25.92.39,1.46l0,.14,0,.13,0,.14,0,.18.05.2,0,.14,0,.16,0,.18,0,.18,0,.17,0,.17,0,.17,0,.16,0,.17,0,.15c.06.34.13.69.19,1A48,48,0,0,1,86.21,99.55l-2.95.48h0a104.31,104.31,0,0,0,10,8.4h0L95,107.21A114.29,114.29,0,0,0,139,45.2C136.63,44.05,133.72,42.8,130.44,41.58Z" transform="translate(-0.68 -24.16)" fill="#007dc3"></path>
</svg>
